<?xml version="1.0" encoding="UTF-8" standalone="no"?>
<!-- Created with Inkscape (http://www.inkscape.org/) -->
<svg
   xmlns:inkscape="http://www.inkscape.org/namespaces/inkscape"
   width="210mm"
   height="297mm"
   viewBox="0 0 210 297"
   version="1.1"
   id="svg832"
   inkscape:version="0.92.5 (2060ec1f9f, 2020-04-08)"
   sodipodi:docname="build.svg">
  <defs
     id="defs826">
    <inkscape:perspective
       sodipodi:type="inkscape:persp3d"
       inkscape:vp_x="0 : 148.5 : 1"
       inkscape:vp_y="0 : 1000 : 0"
       inkscape:vp_z="210 : 148.5 : 1"
       inkscape:persp3d-origin="105 : 99 : 1"
       id="perspective1395" />
  </defs>
  <sodipodi:namedview
     id="base"
     pagecolor="#ffffff"
     bordercolor="#666666"
     borderopacity="1.0"
     inkscape:pageopacity="0.0"
     inkscape:pageshadow="2"
     inkscape:zoom="0.35"
     inkscape:cx="-118.57143"
     inkscape:cy="560"
     inkscape:document-units="mm"
     inkscape:current-layer="layer1"
     showgrid="false"
     inkscape:window-width="1848"
     inkscape:window-height="1016"
     inkscape:window-x="72"
     inkscape:window-y="27"
     inkscape:window-maximized="1" />
  <metadata
     id="metadata829">
    <rdf:RDF>
      <cc:Work
         rdf:about="">
        <dc:format>image/svg+xml</dc:format>
        <dc:type
           rdf:resource="http://purl.org/dc/dcmitype/StillImage" />
        <dc:title></dc:title>
      </cc:Work>
    </rdf:RDF>
  </metadata>
  <g
     inkscape:label="Layer 1"
     inkscape:groupmode="layer"
     id="layer1">
    <path
       style="line-height:normal;-inkscape-font-specification:Sans;text-indent:0;text-align:start;text-transform:none;fill:#881f84;fill-opacity:1;stroke-width:3.4849453"
       d="m 104.40818,43.778283 a 3.5188155,3.4520919 0 0 0 -1.0995,0.431822 l -28.1477,15.317149 a 3.5188155,3.4520919 0 0 0 -0.32993,0.215252 3.5188155,3.4520919 0 0 0 -0.110372,0.10435 3.5188155,3.4520919 0 0 0 -0.110372,0.104349 3.5188155,3.4520919 0 0 0 -0.219953,0.215266 3.5188155,3.4520919 0 0 0 -0.439774,0.538786 3.5188155,3.4520919 0 0 0 -0.110372,0.215266 3.5188155,3.4520919 0 0 0 -0.110373,0.215252 3.5188155,3.4520919 0 0 0 -0.110372,0.10435 3.5188155,3.4520919 0 0 0 0,0.104349 3.5188155,3.4520919 0 0 0 -0.110372,0.215265 3.5188155,3.4520919 0 0 0 0,0.10435 3.5188155,3.4520919 0 0 0 0,0.215265 3.5188155,3.4520919 0 0 0 -0.110372,0.431816 3.5188155,3.4520919 0 0 0 0,0.647081 V 74.284239 L 39.973471,92.513808 a 3.5188155,3.4520919 0 0 0 -1.759224,3.02028 v 29.771292 l -11.874817,6.47198 -0.43977,0.21525 a 3.5188155,3.4520919 0 0 0 -0.329926,0.21527 3.5188155,3.4520919 0 0 0 -0.110372,0.10435 3.5188155,3.4520919 0 0 0 -0.110371,0.10435 3.5188155,3.4520919 0 0 0 -0.219952,0.21525 3.5188155,3.4520919 0 0 0 -0.219951,0.21526 3.5188155,3.4520919 0 0 0 -0.21995,0.32354 3.5188155,3.4520919 0 0 0 -0.110372,0.21526 3.5188155,3.4520919 0 0 0 -0.110373,0.21526 3.5188155,3.4520919 0 0 0 -0.110372,0.10434 3.5188155,3.4520919 0 0 0 0,0.10435 3.5188155,3.4520919 0 0 0 -0.110372,0.21526 3.5188155,3.4520919 0 0 0 0,0.10435 3.5188155,3.4520919 0 0 0 0,0.21525 3.5188155,3.4520919 0 0 0 -0.110372,0.43183 3.5188155,3.4520919 0 0 0 0,0.64708 v 30.31061 a 3.5188155,3.4520919 0 0 0 1.759222,3.02028 l 27.927816,15.20925 0.219951,0.10435 a 3.5188155,3.4520919 0 0 0 0.110372,0.10435 3.5188155,3.4520919 0 0 0 0.219952,0 3.5188155,3.4520919 0 0 0 0.110372,0.10435 3.5188155,3.4520919 0 0 0 0.219951,0.10435 3.5188155,3.4520919 0 0 0 0.110372,0 3.5188155,3.4520919 0 0 0 0.219952,0 3.5188155,3.4520919 0 0 0 0.110372,0.10435 3.5188155,3.4520919 0 0 0 0.21995,0 3.5188155,3.4520919 0 0 0 0.110372,0 3.5188155,3.4520919 0 0 0 0.219951,0 3.5188155,3.4520919 0 0 0 0.110372,0 3.5188155,3.4520919 0 0 0 0.219952,0 3.5188155,3.4520919 0 0 0 0.21995,0 3.5188155,3.4520919 0 0 0 0.879668,-0.21525 3.5188155,3.4520919 0 0 0 0.110372,0 3.5188155,3.4520919 0 0 0 0.110372,-0.10435 3.5188155,3.4520919 0 0 0 0.219954,-0.10435 l 0.329929,-0.21527 a 3.5188155,3.4520919 0 0 0 0.219953,-0.10435 l 5.827453,-3.12816 39.362803,21.46558 a 3.5188155,3.4520919 0 0 0 3.51847,0 l 39.36282,-21.46558 6.15731,3.34394 a 3.5188155,3.4520919 0 0 0 0.32992,0.21526 3.5188155,3.4520919 0 0 0 0.21995,0 3.5188155,3.4520919 0 0 0 0.11037,0.10435 3.5188155,3.4520919 0 0 0 0.21996,0.10435 3.5188155,3.4520919 0 0 0 0.11037,0 3.5188155,3.4520919 0 0 0 0.21995,0 3.5188155,3.4520919 0 0 0 0.11037,0.10435 3.5188155,3.4520919 0 0 0 0.21996,0 3.5188155,3.4520919 0 0 0 0.11037,0 3.5188155,3.4520919 0 0 0 0.21995,0 3.5188155,3.4520919 0 0 0 0.11037,0 3.5188155,3.4520919 0 0 0 0.21995,0 3.5188155,3.4520919 0 0 0 0.21996,0 3.5188155,3.4520919 0 0 0 0.87967,-0.21525 3.5188155,3.4520919 0 0 0 0.11037,0 3.5188155,3.4520919 0 0 0 0.11037,-0.10435 3.5188155,3.4520919 0 0 0 0.21996,-0.10435 l 0.32991,-0.21526 a 3.5188155,3.4520919 0 0 0 0.21995,-0.10435 l 27.59765,-14.99426 a 3.5188155,3.4520919 0 0 0 1.75924,-3.02028 v -28.9082 a 3.5201813,3.4534319 0 0 0 -3.1886,-5.60912 l -10.88526,-5.93266 V 95.506652 a 3.5188155,3.4520919 0 0 0 -1.75923,-3.020281 l -33.4254,-18.229569 v -9.923811 a 3.5201813,3.4534319 0 0 0 -3.18861,-5.609113 L 106.8284,44.161834 a 3.5188155,3.4520919 0 0 0 -2.0891,-0.431821 3.5188155,3.4520919 0 0 0 -0.32979,0 z m 0.65971,7.442856 20.89088,11.325988 -20.89088,11.11034 -20.890874,-11.11034 z m -24.629248,17.150889 21.110778,11.2181 V 102.67372 L 80.438642,91.239828 V 77.324956 a 3.5188155,3.4520919 0 0 0 0,-2.049525 z m 49.258488,0 v 6.903403 a 3.5188155,3.4520919 0 0 0 0,1.941638 V 91.239828 L 108.58634,102.67372 V 79.590128 Z M 73.401711,82.286862 v 11.002491 a 3.5188155,3.4520919 0 0 0 1.759242,3.020268 l 28.147707,15.317149 a 3.5188155,3.4520919 0 0 0 0.11037,0.10435 3.5188155,3.4520919 0 0 0 0.21995,0 3.5188155,3.4520919 0 0 0 0.11037,0.10435 3.5188155,3.4520919 0 0 0 0.21995,0.10435 3.5188155,3.4520919 0 0 0 0.11038,0 3.5188155,3.4520919 0 0 0 0.21995,0 3.5188155,3.4520919 0 0 0 0.11038,0.10435 3.5188155,3.4520919 0 0 0 0.21995,0 3.5188155,3.4520919 0 0 0 0.11037,0 3.5188155,3.4520919 0 0 0 0.21996,0 3.5188155,3.4520919 0 0 0 0.11037,0 3.5188155,3.4520919 0 0 0 0.21995,0 3.5188155,3.4520919 0 0 0 0.21995,0 3.5188155,3.4520919 0 0 0 0.87967,-0.21527 3.5188155,3.4520919 0 0 0 0.11037,0 3.5188155,3.4520919 0 0 0 0.11037,-0.10435 3.5188155,3.4520919 0 0 0 0.21995,-0.10435 l 0.32994,-0.21525 a 3.5188155,3.4520919 0 0 0 0.21995,-0.10435 l 27.5978,-14.993474 a 3.5188155,3.4520919 0 0 0 1.75925,-3.02028 V 82.284355 l 28.14771,15.317188 v 23.838517 l -8.79617,-4.74613 a 3.5188155,3.4520919 0 0 0 -2.08909,-0.43182 3.5188155,3.4520919 0 0 0 -0.32992,0 3.5188155,3.4520919 0 0 0 -1.09949,0.43182 l -28.14772,15.31715 a 3.5188155,3.4520919 0 0 0 -0.21995,0.10435 3.5188155,3.4520919 0 0 0 -0.21995,0.21526 3.5188155,3.4520919 0 0 0 -0.11037,0.10435 3.5188155,3.4520919 0 0 0 -0.21996,0.21527 3.5188155,3.4520919 0 0 0 -0.65971,0.97061 3.5188155,3.4520919 0 0 0 -0.11037,0.10435 3.5188155,3.4520919 0 0 0 0,0.10435 3.5188155,3.4520919 0 0 0 -0.11038,0.21525 3.5188155,3.4520919 0 0 0 -0.11037,0.75537 3.5188155,3.4520919 0 0 0 0,0.21526 v 30.74205 a 3.5188155,3.4520919 0 0 0 1.75931,3.02028 l 14.51368,7.87428 -33.86523,18.44518 -33.865208,-18.44518 14.513665,-7.87428 a 3.5188155,3.4520919 0 0 0 1.759217,-3.02028 V 136.84911 A 3.5201813,3.4534319 0 0 0 84.288959,131.24 L 57.570623,116.67796 a 3.5188155,3.4520919 0 0 0 -2.089085,-0.43183 3.5188155,3.4520919 0 0 0 -0.329927,0 3.5188155,3.4520919 0 0 0 -1.099489,0.43183 l -8.796169,4.74612 V 97.58556 Z m -17.592322,41.421008 20.89088,11.32598 -20.89088,11.11034 -20.89087,-11.11034 7.916537,-4.3147 0.65972,-0.32353 a 3.5188155,3.4520919 0 0 0 0.219951,-0.10435 l 0.110372,-0.10435 a 3.5188155,3.4520919 0 0 0 0.219953,-0.10435 z m 98.517001,0 12.09471,6.57986 a 3.5188155,3.4520919 0 0 0 0.65972,0.32354 l 8.13642,4.42258 -20.89085,11.11034 -20.8909,-11.11034 z m -123.146241,17.15088 21.110781,11.2181 v 23.08354 L 31.180149,163.72651 Z m 49.258493,0 v 22.86776 l -17.812222,9.70803 h -0.110372 a 3.5188155,3.4520919 0 0 0 -0.219954,0.10435 3.5188155,3.4520919 0 0 0 -0.659715,0.32353 3.5188155,3.4520919 0 0 0 -0.219952,0.21527 l -2.089081,1.07889 v -23.08352 z m 49.258488,0 21.11078,11.2181 v 23.08354 l -2.41894,-1.29416 a 3.5188932,3.4521683 0 0 0 -0.11038,-0.10435 l -0.21995,-0.10435 a 3.5188932,3.4521683 0 0 0 -0.32993,-0.10435 l -18.0321,-9.81579 z m 49.25849,0 v 22.86776 l -21.11078,11.43388 v -23.08354 z"
       id="path2"
       inkscape:connector-curvature="0"
       inkscape:export-filename="/home/dfki.uni-bremen.de/pchowdhury/modkom_sw_backbone/bagel/xrock_gui_model/resources/images/build.png"
       inkscape:export-xdpi="96"
       inkscape:export-ydpi="96" />
  </g>
</svg>
